<?xml version="1.0" encoding="UTF-8" standalone="no"?>
<!-- Created with Inkscape (http://www.inkscape.org/) -->

<svg
   width="17.360136mm"
   height="9.7952118mm"
   viewBox="0 0 17.360136 9.7952118"
   version="1.1"
   id="svg1"
   xml:space="preserve"
   xmlns="http://www.w3.org/2000/svg"
   xmlns:svg="http://www.w3.org/2000/svg"><defs
     id="defs1" /><g
     id="layer1"
     transform="translate(-29.860108,-93.506985)"><path
       style="display:inline;fill:#ffd85a;fill-opacity:1;stroke:none"
       d="M 150,16.557861 C 132.27895,21.214722 139.03375,51.62915 142.72067,64 150.7139,90.819916 175.02283,113.4549 202,120.84799 c 7.03665,1.92841 16.68335,4.83682 23.95602,2.71836 5.60656,-1.63315 5.74076,-7.75132 6.12963,-12.56635 0.92683,-11.476196 1.03546,-21.742706 -1.97068,-33 C 223.12469,51.822998 205.45114,32.589172 181,21.731476 172.15129,17.802155 159.72302,14.002777 150,16.557861 M 306,16.439056 C 272.6506,21.647614 250.21637,47.185455 240.08951,78 236.42706,89.144287 231.35419,125.10205 250,123.81558 282.01276,121.60684 313.4263,99.061401 324.93518,69 332.40823,49.480225 338.168,11.415009 306,16.439056"
       id="path1"
       transform="matrix(0.09021254,0,0,0.09021254,17.380905,92.088176)" /></g></svg>
