<?xml version="1.0" encoding="UTF-8" standalone="no"?>
<!-- Created with Inkscape (http://www.inkscape.org/) -->

<svg
   width="111.03476mm"
   height="26.293236mm"
   viewBox="0 0 111.03476 26.293236"
   version="1.1"
   id="svg1"
   xml:space="preserve"
   xmlns="http://www.w3.org/2000/svg"
   xmlns:svg="http://www.w3.org/2000/svg"><defs
     id="defs1" /><g
     id="layer1"
     transform="translate(-56.419731,-110.24239)"><path
       style="fill:#35813f;stroke:none;stroke-width:1.69963"
       d="m 76.485888,130.4318 v -4.49695 c 0,-2.08298 1.290458,-10.61745 4.416438,-4.92026 2.242152,4.08639 -2.088725,10.00554 5.027135,9.41721 0,-7.46629 0.74748,-16.2822 -9.443573,-14.39021 -1.77e-4,-1.60843 -2.018733,-8.8362 -4.225594,-4.35398 -1.564148,3.17686 -0.27157,9.81721 -0.271345,13.34786 8.6e-5,1.33833 -0.291673,3.18255 0.462187,4.37134 0.906678,1.42976 2.6011,1.22455 4.034752,1.02499 m 86.341242,-19.78653 v 5.39632 c -11.54369,-3.41086 -13.71381,15.65046 -1.34909,14.79896 7.26531,-0.50034 5.84604,-7.09913 5.84604,-12.55048 0,-1.90641 0.61769,-5.35102 -0.83555,-6.86131 -0.90617,-0.94173 -2.47448,-0.77273 -3.6614,-0.78349 m -101.630833,1.13742 c -0.920546,0.21282 -1.869995,0.56524 -2.64924,1.10862 -4.692006,3.27184 -0.698131,8.33847 3.098933,9.74267 1.156545,0.4277 3.571408,1.14341 3.313717,2.81058 -0.591626,3.82762 -5.955148,-0.28066 -7.60871,0.85742 -1.504013,1.03513 -0.376652,2.7917 0.746714,3.51496 1.988302,1.28012 4.895715,1.34686 7.145831,0.82651 5.341737,-1.23527 6.660276,-7.52683 1.797039,-10.39118 -1.2232,-0.72043 -5.301599,-1.45889 -5.301599,-3.26375 0,-3.21321 5.604903,-0.33517 6.828685,-1.3123 3.765944,-3.00691 -5.823131,-4.25147 -7.37137,-3.89353 m 71.501323,9.20554 c 6.94687,-6.90849 -5.06715,-11.34807 -10.68993,-8.25064 -2.37113,1.30619 -1.4518,5.98707 -1.4518,8.25064 0,7.45293 1.32515,11.34371 9.89328,9.68264 5.04947,-0.97892 7.20613,-6.96374 2.24845,-9.68264 m -40.02275,-5.10937 c -9.55765,2.7629 -4.791424,17.69935 4.946632,14.64107 8.996258,-2.82531 4.406448,-17.34483 -4.946632,-14.64107 m 16.18898,15.00264 c 8.22735,1.93606 14.14681,-10.04061 6.28878,-14.18654 -2.68734,-1.41785 -9.09156,-1.83136 -10.51438,1.64229 -1.04204,2.54404 -0.27133,6.67287 -0.27133,9.39639 0,1.98357 -0.80362,6.30238 0.72103,7.82314 3.37881,3.3702 3.7759,-2.90198 3.7759,-4.67528 m 16.18899,-11.24235 v -4.04725 c 6.18179,0.003 6.18051,4.03019 0,4.04725 m 12.59144,-3.59756 3.4e-4,8.09449 c 0.0306,5.81277 7.89159,9.69312 12.44813,5.20306 1.67715,-1.65272 2.04004,-10.85637 0.3213,-12.57651 -0.93164,-0.9324 -2.57794,-0.71681 -3.77591,-0.72104 v 4.49693 c 0,1.60083 0.38455,3.83116 -0.27134,5.32973 -1.01133,2.31066 -3.58289,0.88797 -4.27347,-0.84145 -0.93708,-2.34674 0.69601,-6.29248 -0.864,-8.26417 -0.77153,-0.97513 -2.49511,-0.71718 -3.58505,-0.72104 m -43.571405,3.42789 c 4.044287,-1.48246 5.365295,6.24637 1.72556,7.53444 -4.039412,1.42952 -5.140788,-6.28259 -1.72556,-7.53444 m 16.206335,-0.0653 c 4.33465,-1.08972 5.12362,6.89255 1.26511,8.02718 -3.81907,1.12303 -3.6844,-7.41896 -1.26511,-8.02718 m 49.4195,0.0587 c 4.00249,-1.50509 4.3018,6.51234 2.08607,7.54763 -4.15116,1.93962 -6.07416,-6.04798 -2.08607,-7.54763 m -34.64587,7.82106 V 122.787 c 6.83126,7.4e-4 6.80025,4.49619 0,4.49694 z"
       id="path2" /></g></svg>
