<?xml version="1.0" encoding="UTF-8" standalone="no"?>
<!-- Created with Inkscape (http://www.inkscape.org/) -->

<svg
   width="140.8914mm"
   height="43.685036mm"
   viewBox="0 0 140.8914 43.685036"
   version="1.1"
   id="svg1"
   xml:space="preserve"
   xmlns="http://www.w3.org/2000/svg"
   xmlns:svg="http://www.w3.org/2000/svg"><defs
     id="defs1" /><g
     id="layer1"
     transform="translate(-26.563091,-93.506979)"><path
       style="display:inline;fill:#2e7d32;fill-opacity:1;stroke:none"
       d="M 150,16.557861 C 132.27895,21.214722 139.03375,51.62915 142.72067,64 150.7139,90.819916 175.02283,113.4549 202,120.84799 c 7.03665,1.92841 16.68335,4.83682 23.95602,2.71836 5.60656,-1.63315 5.74076,-7.75132 6.12963,-12.56635 0.92683,-11.476196 1.03546,-21.742706 -1.97068,-33 C 223.12469,51.822998 205.45114,32.589172 181,21.731476 172.15129,17.802155 159.72302,14.002777 150,16.557861 M 306,16.439056 C 272.6506,21.647614 250.21637,47.185455 240.08951,78 236.42706,89.144287 231.35419,125.10205 250,123.81558 282.01276,121.60684 313.4263,99.061401 324.93518,69 332.40823,49.480225 338.168,11.415009 306,16.439056 M 253,146.42438 c -34.489,4.52838 -71.29385,-6.36499 -104,9.94598 C 136.85715,162.42618 124.96845,169.96564 116.7608,181 95.030098,210.21475 95.16832,260.92883 129,281.53625 143.95729,290.64703 160.92398,292 178,292 c 60.54706,0 151.02695,-18.97668 175.66666,55 3.43414,10.31042 5.32946,21.18719 3.57949,32 -2.24371,13.86356 -5.09933,26.827 -12.44985,39 -30.13685,49.90878 -110.61521,61.80722 -146.86883,12 -7.81196,-10.73251 -10.25309,-22.99713 -9.91281,-36 0.10942,-4.181 1.73284,-13.82416 7.9892,-12.38733 3.89012,0.89337 7.31288,5.70511 9.99614,8.38733 8.0524,8.04929 19.69218,25.18793 32,25.94135 9.32483,0.57083 14.99632,-6.93766 21,-12.94135 l 38,-38 c 5.74039,-5.74261 13.01138,-11.94269 10.42749,-21 -3.0029,-10.526 -15.14844,-13.13287 -23.42749,-7.35107 -11.14584,7.78387 -20.96774,19.87551 -30.62576,29.4776 -3.49417,3.47393 -8.15047,10.51342 -13.375,11.13119 C 233.23709,378.05728 224.63914,366.44794 220.71451,362 209.15976,348.90454 193.61404,337.19537 176,346.90509 139.91893,366.79471 147.15511,422.15594 165.6983,451 c 25.39562,39.50305 73.63454,53.52954 118.3017,47.71063 29.46851,-3.83893 59.42889,-17.77881 79.69986,-39.80014 42.28717,-45.93854 47.10089,-121.62872 4.13037,-168.90973 C 328.77551,247.02838 272.61685,253 220,253 194.54713,253 142.21997,264.07825 141.45602,225 141.09995,206.78513 157.32381,193.57889 173,188.33334 203.72827,178.05112 239.08627,184 271,184 c 13.47116,0 34.3497,3.21268 41.81097,-11.01465 4.93351,-9.40735 0.22306,-21.50049 -9.81097,-25.14584 -13.44626,-4.88501 -35.92871,-3.2627 -50,-1.41513 m -17.89275,9.32715 c 8.14536,-1.95566 10.82294,14.0827 2.84954,16.3974 -8.8004,2.55477 -10.46193,-14.56971 -2.84954,-16.3974 z"
       id="path1"
       transform="matrix(0.09021254,0,0,0.09021254,17.380905,92.088176)" /><path
       style="fill:#35813f;stroke:none;stroke-width:1.69963"
       d="m 76.485888,130.4318 v -4.49695 c 0,-2.08298 1.290458,-10.61745 4.416438,-4.92026 2.242152,4.08639 -2.088725,10.00554 5.027135,9.41721 0,-7.46629 0.74748,-16.2822 -9.443573,-14.39021 -1.77e-4,-1.60843 -2.018733,-8.8362 -4.225594,-4.35398 -1.564148,3.17686 -0.27157,9.81721 -0.271345,13.34786 8.6e-5,1.33833 -0.291673,3.18255 0.462187,4.37134 0.906678,1.42976 2.6011,1.22455 4.034752,1.02499 m 86.341242,-19.78653 v 5.39632 c -11.54369,-3.41086 -13.71381,15.65046 -1.34909,14.79896 7.26531,-0.50034 5.84604,-7.09913 5.84604,-12.55048 0,-1.90641 0.61769,-5.35102 -0.83555,-6.86131 -0.90617,-0.94173 -2.47448,-0.77273 -3.6614,-0.78349 m -101.630833,1.13742 c -0.920546,0.21282 -1.869995,0.56524 -2.64924,1.10862 -4.692006,3.27184 -0.698131,8.33847 3.098933,9.74267 1.156545,0.4277 3.571408,1.14341 3.313717,2.81058 -0.591626,3.82762 -5.955148,-0.28066 -7.60871,0.85742 -1.504013,1.03513 -0.376652,2.7917 0.746714,3.51496 1.988302,1.28012 4.895715,1.34686 7.145831,0.82651 5.341737,-1.23527 6.660276,-7.52683 1.797039,-10.39118 -1.2232,-0.72043 -5.301599,-1.45889 -5.301599,-3.26375 0,-3.21321 5.604903,-0.33517 6.828685,-1.3123 3.765944,-3.00691 -5.823131,-4.25147 -7.37137,-3.89353 m 71.501323,9.20554 c 6.94687,-6.90849 -5.06715,-11.34807 -10.68993,-8.25064 -2.37113,1.30619 -1.4518,5.98707 -1.4518,8.25064 0,7.45293 1.32515,11.34371 9.89328,9.68264 5.04947,-0.97892 7.20613,-6.96374 2.24845,-9.68264 m -40.02275,-5.10937 c -9.55765,2.7629 -4.791424,17.69935 4.946632,14.64107 8.996258,-2.82531 4.406448,-17.34483 -4.946632,-14.64107 m 16.18898,15.00264 c 8.22735,1.93606 14.14681,-10.04061 6.28878,-14.18654 -2.68734,-1.41785 -9.09156,-1.83136 -10.51438,1.64229 -1.04204,2.54404 -0.27133,6.67287 -0.27133,9.39639 0,1.98357 -0.80362,6.30238 0.72103,7.82314 3.37881,3.3702 3.7759,-2.90198 3.7759,-4.67528 m 16.18899,-11.24235 v -4.04725 c 6.18179,0.003 6.18051,4.03019 0,4.04725 m 12.59144,-3.59756 3.4e-4,8.09449 c 0.0306,5.81277 7.89159,9.69312 12.44813,5.20306 1.67715,-1.65272 2.04004,-10.85637 0.3213,-12.57651 -0.93164,-0.9324 -2.57794,-0.71681 -3.77591,-0.72104 v 4.49693 c 0,1.60083 0.38455,3.83116 -0.27134,5.32973 -1.01133,2.31066 -3.58289,0.88797 -4.27347,-0.84145 -0.93708,-2.34674 0.69601,-6.29248 -0.864,-8.26417 -0.77153,-0.97513 -2.49511,-0.71718 -3.58505,-0.72104 m -43.571405,3.42789 c 4.044287,-1.48246 5.365295,6.24637 1.72556,7.53444 -4.039412,1.42952 -5.140788,-6.28259 -1.72556,-7.53444 m 16.206335,-0.0653 c 4.33465,-1.08972 5.12362,6.89255 1.26511,8.02718 -3.81907,1.12303 -3.6844,-7.41896 -1.26511,-8.02718 m 49.4195,0.0587 c 4.00249,-1.50509 4.3018,6.51234 2.08607,7.54763 -4.15116,1.93962 -6.07416,-6.04798 -2.08607,-7.54763 m -34.64587,7.82106 V 122.787 c 6.83126,7.4e-4 6.80025,4.49619 0,4.49694 z"
       id="path2" /></g></svg>
